<svg xmlns="http://www.w3.org/2000/svg" viewBox="0 0 640 400" role="img" aria-labelledby="title desc">
  <title id="title">Spectral traces</title>
  <desc id="desc">Layered spectral curves and measurement markers in a restrained scientific composition.</desc>
  <rect width="640" height="400" fill="#eef2f4"/>
  <g fill="none" stroke="#171719" stroke-width="1" opacity=".16">
    <path d="M78 68v264h500"/>
    <path d="M78 134h500M78 200h500M78 266h500" stroke-dasharray="2 10"/>
  </g>
  <g fill="none" stroke="#007b83" stroke-width="2.2">
    <path d="M78 250c58-4 88-16 122-60 31-39 50-42 79-8 32 38 56 37 89-26 31-60 67-64 96-18 34 52 55 64 114 54" opacity=".32"/>
    <path d="M78 228c71-1 103-17 139-66 29-40 54-40 82 4 30 47 50 51 78-8 31-66 67-78 98-22 24 44 50 65 103 68" opacity=".56"/>
    <path d="M78 206c67 0 105-24 144-76 25-33 52-29 75 19 28 57 49 61 78-5 29-67 65-78 99-13 22 42 48 58 104 55"/>
  </g>
  <g fill="#fff" stroke="#007b83" stroke-width="2">
    <circle cx="222" cy="130" r="8"/>
    <circle cx="375" cy="144" r="8"/>
    <circle cx="474" cy="131" r="8"/>
  </g>
  <g stroke="#007b83" stroke-width="1.5" opacity=".48">
    <path d="M222 92v76M184 130h76"/>
    <path d="M375 106v76M337 144h76"/>
    <path d="M474 93v76M436 131h76"/>
  </g>
</svg>
