<svg xmlns="http://www.w3.org/2000/svg" viewBox="0 0 640 400" role="img" aria-labelledby="title desc">
  <title id="title">Field notes</title>
  <desc id="desc">A restrained editorial illustration of an open notebook in a green landscape.</desc>
  <rect width="640" height="400" fill="#dbe9e5"/>
  <circle cx="510" cy="82" r="46" fill="#f1c77d"/>
  <path d="M0 186c110-70 205-66 318 0 106 62 204 67 322 4v210H0z" fill="#6e9b89"/>
  <path d="M0 266c126-60 228-52 338 4 103 52 202 57 302 4v126H0z" fill="#174b4e"/>
  <path d="M144 199c69-21 126-8 176 38v119c-50-45-107-58-176-37z" fill="#f8f5eb" stroke="#173d3f" stroke-width="3"/>
  <path d="M496 199c-69-21-126-8-176 38v119c50-45 107-58 176-37z" fill="#f8f5eb" stroke="#173d3f" stroke-width="3"/>
  <path d="M320 238v118M178 243c44-7 80 2 108 25M178 277c44-7 80 2 108 25M462 243c-44-7-80 2-108 25M462 277c-44-7-80 2-108 25" fill="none" stroke="#007b83" stroke-width="3" opacity=".72"/>
</svg>
